<svg xmlns="http://www.w3.org/2000/svg" viewBox="0 0 23 23"><path d="M14.04 17.14a16.37 16.37 0 0 0 1.4-1.56l.12-.06a7.93 7.93 0 0 1-.14 1.34 13.33 13.33 0 0 1-1.38.28zm-1.88.86l-3.1 2.4c-.56-.76-.32-1.07-.32-1.07 0-.6 1.37-1.2 1.37-1.2zm10.7-4.7a11.56 11.56 0 0 1-9.08 9.49 15.81 15.81 0 0 0 2.09-5.51c2.33-.63 5.3-1.8 7-3.98zm.15-1.8v.53c0 .06-.8 3.08-7 4.68h-.05l.2-1.45a22.69 22.69 0 0 0 6.8-4.9c.04.35.06.72.06 1.14zm-10.05 5.82l-1.63.18 2.86-1.36-1.23 1.15zm2.35.1a23.41 23.41 0 0 1-2.36 5.51c-.2 0-.4 0-.62.06a14.21 14.21 0 0 1-2.92-2.21 24.53 24.53 0 0 0 3.94-3c.5-.04 1.17-.17 1.96-.36z" fill="#dc4b38"/><g fill="#147fab"><path d="M3 11.78a30.24 30.24 0 0 0 .38 3.36 5.11 5.11 0 0 1-2.52.57 17.19 17.19 0 0 1 1.65-3.94l.08-.1a1.38 1.38 0 0 0 .41.11zm.3-5.66a14.48 14.48 0 0 0-2.4 1 12 12 0 0 1 3.33-4.5 21.75 21.75 0 0 0-.93 3.5zm.78 2.43l-.25.34v.07l-.33-.1.2-2.36a14.22 14.22 0 0 1 2.89-.72l-.1.04-.07.07h-.06l-.15.15-.72.84-.08.1-.14.15-.1.13-.38.45-.17.2-.12.1-.13.16-.17.22-.05.12z"/><path d="M7.88 5.5s.34 7.1-4.1 9.42a31.88 31.88 0 0 1-.34-3.19 1.48 1.48 0 0 0 .76-2.49v-.07A31.51 31.51 0 0 1 7.5 5.5zM.6 15.04a10.87 10.87 0 0 1 0-7.21 10 10 0 0 1 2.59-1.17L3 8.84a1.48 1.48 0 0 0-.83 2.55l-.08.1a19.69 19.69 0 0 0-1.5 3.54z"/><circle cx="3.18" cy="10.35" r=".89"/><path d="M10.04.03A11.62 11.62 0 0 0 7.99 4.5l-.77.67a19.12 19.12 0 0 0-3.41.78A18.75 18.75 0 0 1 4.9 2.14 11.43 11.43 0 0 1 10.04.03z"/></g><g fill="#666"><path d="M15.1 6.9a26.61 26.61 0 0 1 .61 6.24l-5.26 2.57-1.36.74-1.73 1.18-.53-.05c-1-.1-3.2-.34-2.68-.63.68-.37 5.92-2.22 5.67-11.63l3.65.1a1.47 1.47 0 0 0 1.47 1.49zm-1.45-5.34a9.87 9.87 0 0 1 2.59-.62 11.4 11.4 0 0 1 3.68 2.64 7.91 7.91 0 0 1-.1 2.86 15.79 15.79 0 0 0-3.4-1.1 1.48 1.48 0 0 0-1.47-1.4h-.2a15.21 15.21 0 0 0-1.09-2.38zm6.07 5.34a20.26 20.26 0 0 1-2.22 5.3l-1.18.66h-.07a22.86 22.86 0 0 0-.64-6.12 1.46 1.46 0 0 0 .8-1 16 16 0 0 1 3.31 1.16zm2.58.6a2.52 2.52 0 0 1-.21.44 7.78 7.78 0 0 0-1.78-1.2 5.67 5.67 0 0 0 .1-.72 12.68 12.68 0 0 0 .07-1.75 11.7 11.7 0 0 1 1.81 3.23z"/><circle cx="14.95" cy="5.42" r=".89"/><path d="M20.24 7.14a7.79 7.79 0 0 1 1.64 1.12 12.22 12.22 0 0 1-3.53 3.38 13.91 13.91 0 0 0 1.89-4.5zM13.57 4.9l-3.64-.06a8.45 8.45 0 0 1 .57-1.66 14.49 14.49 0 0 1 2.7-1.45c.47.87.94 1.94 1.12 2.36a1.49 1.49 0 0 0-.75.81zM12.7.2l.13-.2a11.61 11.61 0 0 1 2.51.58 9.07 9.07 0 0 0-1.95.55 8.71 8.71 0 0 0-.69-.94zM7.24 21.32c-.1.06-1 .35-1 .35a17.79 17.79 0 0 1-1.74-3.93 19.18 19.18 0 0 0 2.32.33h.23v.05a1 1 0 0 0-.07.15 3.5 3.5 0 0 0 .26 3.05zm5.7-20a16.94 16.94 0 0 0-2 1c.05-.1.1-.2.17-.3l.15-.23.05-.08.18-.22a.86.86 0 0 0 0-.1l.08-.1a1.47 1.47 0 0 1 .1-.13L11.8 1l.13-.14.13-.15.14-.15V.6a2.81 2.81 0 0 1 .74.71zm-8.98 16.3a12.33 12.33 0 0 0 1.39 3.53A12.24 12.24 0 0 1 1.8 17.5a2.45 2.45 0 0 0 1.1-.24s.37.18 1.07.36zm4.37 5a14 14 0 0 1-1.59-.66l.75-.3a4.89 4.89 0 0 0 .84.95z"/></g></svg>